<?xml version="1.0" standalone="no"?>
<!DOCTYPE svg PUBLIC "-//W3C//DTD SVG 20010904//EN"
 "http://www.w3.org/TR/2001/REC-SVG-20010904/DTD/svg10.dtd">
<svg version="1.0" xmlns="http://www.w3.org/2000/svg"
 width="1563.000000pt" height="1563.000000pt" viewBox="0 0 1563.000000 1563.000000"
 preserveAspectRatio="xMidYMid meet">

<g transform="translate(0.000000,1563.000000) scale(0.100000,-0.100000)"
fill="#000000" stroke="none">
<path d="M8140 11042 c-117 -119 -170 -241 -185 -427 -16 -201 92 -430 259
-550 97 -69 184 -105 299 -125 l101 -17 9 -39 c15 -70 2 -310 -22 -393 -109
-372 -413 -628 -795 -667 l-68 -7 5 -31 c4 -17 10 -56 16 -86 30 -176 163
-405 317 -550 81 -75 216 -165 307 -205 37 -16 67 -34 67 -40 0 -5 -11 -44
-24 -86 -34 -104 -51 -254 -42 -362 7 -76 10 -88 24 -83 10 3 42 14 72 25 69
25 181 27 381 6 111 -12 161 -13 227 -5 102 13 126 25 183 88 64 71 79 122 79
267 0 66 5 137 11 158 6 21 32 63 60 93 54 60 60 87 29 127 l-20 25 29 21 c15
11 36 33 46 48 17 25 17 30 1 93 -20 78 -13 106 36 143 18 13 59 34 91 46 89
32 115 49 132 81 36 69 10 138 -124 329 -136 192 -183 299 -195 441 -3 36 -2
146 2 245 15 351 -20 546 -139 774 -77 148 -105 185 -231 307 -163 158 -305
249 -528 338 -106 42 -286 96 -319 96 -8 0 -49 -35 -91 -78z"/>
<path d="M7782 6148 c-7 -7 -12 -40 -12 -80 0 -56 3 -69 19 -78 13 -6 141 -10
350 -10 380 0 361 -5 361 90 0 95 20 90 -369 90 -249 0 -340 -3 -349 -12z"/>
<path d="M4675 6138 c-85 -47 -109 -113 -103 -287 3 -111 7 -131 28 -171 41
-75 61 -80 302 -80 252 0 241 6 236 -121 -1 -48 -7 -91 -11 -96 -5 -4 -131
-10 -280 -13 l-272 -5 -3 -60 c-2 -32 -1 -69 3 -82 l5 -23 293 0 c284 0 294 1
337 23 35 17 51 34 70 72 23 46 25 61 25 190 0 131 -2 144 -25 190 -19 38 -36
56 -70 73 -42 21 -57 22 -247 22 -234 0 -223 -5 -223 105 0 112 -18 105 268
105 136 0 253 4 260 9 9 5 12 29 10 82 l-3 74 -290 2 c-198 2 -296 -1 -310 -9z"/>
<path d="M5555 6141 c-7 -13 -18 7 181 -348 l164 -291 0 -132 c0 -72 5 -140
10 -151 9 -16 22 -19 80 -19 58 0 71 3 80 19 5 11 10 79 10 151 l0 131 175
308 c96 170 175 316 175 325 0 15 -12 16 -87 14 l-87 -3 -31 -55 c-18 -30 -77
-137 -132 -238 l-100 -183 -130 238 -130 238 -86 3 c-50 2 -88 -1 -92 -7z"/>
<path d="M6710 6130 c-11 -11 -22 -30 -25 -42 -3 -13 -4 -216 -3 -453 l3 -430
75 0 75 0 3 363 c1 199 6 362 10 362 4 0 93 -152 197 -337 105 -186 202 -350
217 -365 25 -26 32 -28 107 -28 44 0 91 5 104 11 51 23 52 34 55 479 2 228 0
425 -3 438 -5 22 -9 23 -83 20 l-77 -3 -5 -365 -5 -365 -21 35 c-12 19 -101
177 -198 350 -97 173 -186 323 -197 333 -17 13 -40 17 -115 17 -80 0 -97 -3
-114 -20z"/>
<path d="M8775 6141 c-9 -16 6 -39 151 -242 74 -102 134 -191 134 -198 0 -6
-72 -113 -160 -238 -89 -124 -159 -233 -158 -242 3 -13 20 -17 89 -19 l87 -3
123 176 c68 96 126 175 129 175 3 0 59 -78 126 -173 l121 -172 89 0 c88 0 89
0 89 25 -1 16 -57 105 -153 242 -84 119 -152 219 -152 222 0 3 68 99 150 213
83 114 149 214 148 222 -3 13 -21 17 -90 19 l-86 3 -114 -155 c-62 -85 -116
-154 -120 -153 -4 1 -53 70 -111 152 l-103 150 -91 3 c-54 2 -94 -1 -98 -7z"/>
<path d="M9855 6138 c-3 -7 -4 -220 -3 -473 l3 -460 68 -3 c42 -2 74 2 83 9
12 9 14 86 14 459 0 247 -3 455 -6 464 -5 13 -22 16 -80 16 -51 0 -76 -4 -79
-12z"/>
<path d="M10364 6136 c-74 -32 -99 -100 -99 -266 0 -114 3 -130 26 -181 40
-85 53 -89 306 -89 149 0 212 -3 221 -12 8 -8 12 -46 12 -103 0 -57 -4 -95
-12 -103 -9 -9 -84 -12 -275 -12 -298 0 -283 4 -283 -85 0 -90 -18 -85 311
-85 318 0 334 2 382 59 38 46 47 90 46 231 0 149 -15 197 -72 244 l-39 31
-218 5 c-120 3 -222 9 -226 13 -10 10 -12 156 -2 180 7 16 29 17 261 17 183 0
256 3 265 12 12 12 17 114 6 142 -5 14 -40 16 -293 16 -217 -1 -293 -4 -317
-14z"/>
<path d="M7843 5763 c-12 -2 -34 -18 -48 -34 -24 -29 -25 -37 -25 -153 0 -201
37 -297 135 -346 49 -24 56 -25 310 -28 303 -4 285 -11 285 104 0 109 12 104
-265 104 -232 0 -234 0 -262 24 -24 21 -28 32 -31 95 l-4 71 273 2 274 3 3 68
c2 42 -2 74 -9 83 -9 12 -64 14 -313 13 -165 -1 -311 -4 -323 -6z"/>
<path d="M6479 4715 c-31 -17 -42 -48 -27 -80 7 -16 31 -31 77 -47 54 -19 67
-27 69 -47 7 -49 -78 -71 -118 -31 -22 22 -40 26 -40 10 0 -5 9 -19 20 -30 31
-31 113 -28 145 5 49 48 23 92 -68 119 -67 19 -84 48 -46 78 25 21 62 17 92
-9 19 -18 32 -12 23 12 -12 33 -83 44 -127 20z"/>
<path d="M6843 4715 c-43 -19 -73 -69 -73 -124 0 -37 6 -49 39 -82 33 -33 45
-39 82 -39 77 0 139 59 139 132 0 37 -34 90 -71 110 -40 21 -72 22 -116 3z
m128 -44 c39 -39 40 -96 4 -139 -32 -39 -72 -48 -119 -28 -71 29 -84 121 -24
171 43 36 100 35 139 -4z"/>
<path d="M7780 4715 c0 -10 10 -15 30 -15 l30 0 0 -115 c0 -96 3 -115 15 -115
12 0 15 19 15 115 l0 115 30 0 c20 0 30 5 30 15 0 12 -15 15 -75 15 -60 0 -75
-3 -75 -15z"/>
<path d="M8332 4710 c-37 -23 -72 -75 -72 -108 0 -73 62 -132 139 -132 37 0
49 6 82 39 33 33 39 45 39 82 0 56 -30 106 -75 125 -46 19 -74 18 -113 -6z
m127 -36 c60 -50 46 -140 -26 -170 -46 -20 -86 -10 -118 28 -82 98 46 225 144
142z"/>
<path d="M8680 4601 c0 -108 3 -131 15 -131 11 0 15 19 17 91 l3 91 63 -91
c34 -50 65 -91 67 -91 3 0 5 56 5 125 0 145 -18 172 -22 34 l-3 -92 -63 91
c-34 50 -67 94 -72 97 -6 4 -10 -43 -10 -124z"/>
<path d="M9049 4715 c-31 -17 -42 -48 -27 -80 7 -16 31 -31 77 -47 54 -19 67
-27 69 -47 7 -49 -78 -71 -118 -31 -22 22 -40 26 -40 10 0 -5 9 -19 20 -30 31
-31 113 -28 145 5 49 48 23 92 -68 119 -67 19 -84 48 -46 78 25 21 62 17 92
-9 19 -18 32 -12 23 12 -12 33 -83 44 -127 20z"/>
<path d="M7190 4595 l0 -125 55 0 c42 0 55 3 55 15 0 11 -12 15 -45 15 l-45 0
0 110 c0 67 -4 110 -10 110 -6 0 -10 -48 -10 -125z"/>
<path d="M7450 4620 c0 -94 2 -103 25 -125 18 -19 35 -25 67 -25 78 1 98 34
98 159 0 74 -3 91 -15 91 -12 0 -15 -18 -15 -99 0 -107 -4 -116 -58 -127 -25
-5 -36 -1 -56 19 -24 24 -26 33 -26 117 0 53 -4 90 -10 90 -6 0 -10 -40 -10
-100z"/>
<path d="M8080 4595 c0 -77 4 -125 10 -125 6 0 10 48 10 125 0 77 -4 125 -10
125 -6 0 -10 -48 -10 -125z"/>
</g>
</svg>
