<svg xmlns="http://www.w3.org/2000/svg" xmlns:xlink="http://www.w3.org/1999/xlink" width="1500" zoomAndPan="magnify" viewBox="0 0 1125 225" height="300" preserveAspectRatio="xMidYMid meet" version="1.0"><defs><g/><clipPath id="fdae9a55b6"><path d="M 241.421875 40 L 264 40 L 264 63 L 241.421875 63 Z M 241.421875 40 " clip-rule="nonzero"/></clipPath></defs><path fill="#f9ed32" d="M 339.46875 31.027344 C 340.269531 31.027344 341.0625 30.949219 341.851562 30.792969 C 342.636719 30.636719 343.402344 30.40625 344.140625 30.097656 C 344.882812 29.792969 345.585938 29.414062 346.253906 28.96875 C 346.921875 28.527344 347.539062 28.019531 348.105469 27.453125 C 348.675781 26.886719 349.179688 26.269531 349.625 25.605469 C 350.074219 24.9375 350.449219 24.234375 350.757812 23.496094 C 351.0625 22.753906 351.296875 21.992188 351.453125 21.207031 C 351.609375 20.421875 351.6875 19.628906 351.6875 18.824219 C 351.691406 18.023438 351.613281 17.230469 351.457031 16.445312 C 351.300781 15.660156 351.070312 14.894531 350.761719 14.15625 C 350.457031 13.414062 350.082031 12.710938 349.636719 12.042969 C 349.191406 11.378906 348.683594 10.761719 348.117188 10.195312 C 347.550781 9.625 346.933594 9.121094 346.269531 8.675781 C 345.601562 8.226562 344.898438 7.851562 344.15625 7.542969 C 343.417969 7.238281 342.652344 7.003906 341.867188 6.847656 C 341.078125 6.691406 340.285156 6.609375 339.484375 6.609375 C 338.679688 6.609375 337.886719 6.683594 337.097656 6.839844 C 336.3125 6.996094 335.546875 7.226562 334.804688 7.53125 C 334.066406 7.835938 333.359375 8.210938 332.691406 8.65625 C 332.023438 9.101562 331.40625 9.605469 330.839844 10.171875 C 330.269531 10.738281 329.761719 11.351562 329.316406 12.019531 C 328.871094 12.683594 328.492188 13.386719 328.183594 14.125 C 327.875 14.867188 327.640625 15.628906 327.484375 16.414062 C 327.324219 17.199219 327.246094 17.992188 327.246094 18.792969 C 327.246094 19.597656 327.324219 20.390625 327.480469 21.179688 C 327.636719 21.964844 327.867188 22.730469 328.175781 23.46875 C 328.480469 24.210938 328.859375 24.914062 329.304688 25.582031 C 329.75 26.25 330.253906 26.867188 330.824219 27.433594 C 331.390625 28.003906 332.007812 28.511719 332.675781 28.957031 C 333.34375 29.402344 334.046875 29.78125 334.789062 30.089844 C 335.53125 30.398438 336.292969 30.628906 337.082031 30.789062 C 337.867188 30.945312 338.664062 31.023438 339.46875 31.027344 Z M 339.46875 31.027344 " fill-opacity="0.78" fill-rule="evenodd"/><path fill="#662d91" d="M 398.671875 40.4375 C 401.992188 44.285156 404.738281 48.503906 406.910156 53.097656 C 409.082031 57.691406 410.597656 62.488281 411.460938 67.496094 C 413.9375 81.96875 410.160156 95.367188 412.808594 104.371094 C 413.429688 106.390625 414.261719 108.320312 415.300781 110.160156 C 414.683594 110.519531 414.054688 110.859375 413.414062 111.183594 C 412.777344 111.507812 412.128906 111.8125 411.472656 112.101562 C 410.816406 112.386719 410.152344 112.65625 409.480469 112.90625 C 408.808594 113.152344 408.128906 113.382812 407.445312 113.59375 C 406.761719 113.804688 406.070312 113.992188 405.375 114.164062 C 404.679688 114.335938 403.976562 114.484375 403.273438 114.613281 C 402.570312 114.746094 401.859375 114.855469 401.148438 114.945312 C 400.441406 115.035156 399.726562 115.105469 399.011719 115.152344 C 398.296875 115.203125 397.582031 115.230469 396.863281 115.238281 C 396.148438 115.246094 395.433594 115.234375 394.71875 115.199219 C 394 115.167969 393.285156 115.113281 392.574219 115.039062 C 391.863281 114.964844 391.152344 114.871094 390.445312 114.757812 C 389.738281 114.644531 389.035156 114.507812 388.335938 114.351562 C 387.636719 114.199219 386.941406 114.023438 386.25 113.828125 C 385.5625 113.632812 384.878906 113.417969 384.203125 113.183594 C 383.523438 112.953125 382.855469 112.699219 382.191406 112.425781 C 381.527344 112.152344 380.875 111.863281 380.230469 111.554688 C 379.582031 111.242188 378.945312 110.914062 378.320312 110.570312 C 377.691406 110.222656 377.074219 109.859375 376.46875 109.476562 C 375.863281 109.097656 375.269531 108.699219 374.6875 108.28125 C 374.101562 107.867188 373.53125 107.433594 372.972656 106.984375 C 372.414062 106.539062 371.871094 106.074219 371.335938 105.59375 C 370.804688 105.113281 370.289062 104.621094 369.785156 104.113281 C 369.28125 103.601562 368.792969 103.078125 368.320312 102.542969 C 367.847656 102.003906 367.386719 101.453125 366.945312 100.890625 C 366.503906 100.328125 366.078125 99.753906 365.671875 99.164062 C 365.261719 98.578125 364.871094 97.976562 364.496094 97.367188 C 364.121094 96.757812 363.765625 96.136719 363.425781 95.507812 C 363.089844 94.875 362.769531 94.234375 362.464844 93.585938 C 362.164062 92.9375 361.878906 92.28125 361.617188 91.617188 C 361.351562 90.949219 361.105469 90.277344 360.882812 89.597656 C 360.65625 88.917969 360.449219 88.234375 360.261719 87.542969 C 360.078125 86.851562 359.910156 86.15625 359.765625 85.457031 C 359.617188 84.753906 359.492188 84.050781 359.386719 83.34375 C 359.28125 82.636719 359.195312 81.925781 359.128906 81.210938 C 359.0625 80.5 359.019531 79.785156 358.996094 79.070312 C 358.972656 78.355469 358.96875 77.640625 358.984375 76.925781 C 359 76.210938 359.039062 75.496094 359.097656 74.78125 C 359.15625 74.070312 359.234375 73.355469 359.332031 72.648438 C 359.429688 71.941406 359.550781 71.234375 359.6875 70.53125 C 359.828125 69.832031 359.988281 69.132812 360.167969 68.441406 C 360.347656 67.746094 360.546875 67.058594 360.765625 66.378906 C 360.984375 65.695312 361.222656 65.023438 361.476562 64.355469 C 361.734375 63.6875 362.011719 63.027344 362.308594 62.375 C 362.601562 61.722656 362.917969 61.078125 363.25 60.445312 C 363.582031 59.8125 363.933594 59.1875 364.300781 58.574219 C 364.667969 57.960938 365.054688 57.355469 365.457031 56.765625 C 365.859375 56.171875 366.277344 55.59375 366.714844 55.027344 C 367.152344 54.457031 367.601562 53.902344 368.070312 53.359375 C 368.539062 52.820312 369.023438 52.289062 369.519531 51.777344 C 370.019531 51.261719 370.53125 50.761719 371.058594 50.277344 C 371.585938 49.792969 372.125 49.324219 372.679688 48.871094 C 373.234375 48.414062 373.800781 47.976562 374.378906 47.558594 C 374.957031 47.136719 375.546875 46.730469 376.152344 46.34375 C 376.753906 45.957031 377.367188 45.585938 377.988281 45.234375 C 378.613281 44.878906 379.246094 44.546875 379.886719 44.230469 C 380.53125 43.914062 381.183594 43.617188 381.84375 43.335938 C 382.503906 43.058594 383.167969 42.796875 383.84375 42.558594 C 384.519531 42.316406 385.199219 42.09375 385.886719 41.894531 C 386.574219 41.691406 387.265625 41.511719 387.964844 41.347656 C 388.664062 41.1875 389.363281 41.042969 390.070312 40.921875 C 390.777344 40.800781 391.484375 40.699219 392.199219 40.617188 C 392.910156 40.535156 393.625 40.476562 394.339844 40.4375 C 395.054688 40.394531 395.769531 40.375 396.484375 40.375 C 397.191406 40.375 397.9375 40.398438 398.671875 40.4375 Z M 398.671875 40.4375 " fill-opacity="0.78" fill-rule="evenodd"/><path fill="#92278f" d="M 412.1875 73.863281 C 412.972656 85.851562 410.550781 96.703125 412.808594 104.402344 C 416.671875 117.550781 433.804688 129.460938 425.800781 136.226562 C 423.265625 138.257812 418.90625 138.390625 416.351562 140.378906 C 412.285156 143.550781 415.066406 146.980469 415.425781 149.453125 C 415.601562 150.628906 414.535156 152.515625 411.011719 154.8125 C 413.671875 156.769531 413.429688 158.429688 412.480469 159.957031 C 411.183594 160.84375 409.851562 161.667969 408.480469 162.4375 C 407.109375 163.203125 405.710938 163.90625 404.273438 164.546875 C 402.839844 165.1875 401.382812 165.761719 399.894531 166.269531 C 398.410156 166.777344 396.90625 167.21875 395.378906 167.589844 C 393.851562 167.960938 392.3125 168.265625 390.761719 168.496094 C 389.207031 168.730469 387.648438 168.894531 386.078125 168.984375 C 384.511719 169.078125 382.941406 169.097656 381.375 169.050781 C 379.804688 169 378.238281 168.878906 376.679688 168.691406 C 375.121094 168.5 373.574219 168.238281 372.039062 167.910156 C 370.503906 167.578125 368.988281 167.179688 367.488281 166.710938 C 365.988281 166.246094 364.511719 165.710938 363.0625 165.109375 C 361.613281 164.507812 360.191406 163.84375 358.800781 163.117188 C 357.410156 162.386719 356.054688 161.597656 354.734375 160.746094 C 353.417969 159.894531 352.140625 158.984375 350.902344 158.019531 C 349.664062 157.050781 348.472656 156.03125 347.328125 154.957031 C 346.183594 153.882812 345.089844 152.757812 344.046875 151.585938 C 343.007812 150.414062 342.019531 149.195312 341.085938 147.933594 C 340.152344 146.671875 339.28125 145.371094 338.464844 144.027344 C 337.648438 142.6875 336.898438 141.3125 336.207031 139.902344 C 335.515625 138.496094 334.890625 137.058594 334.332031 135.59375 C 333.769531 134.125 333.277344 132.636719 332.851562 131.128906 C 332.425781 129.617188 332.070312 128.09375 331.78125 126.550781 C 331.496094 125.007812 331.277344 123.457031 331.132812 121.894531 C 330.984375 120.332031 330.90625 118.765625 330.902344 117.199219 C 330.898438 115.628906 330.964844 114.0625 331.097656 112.5 C 331.234375 110.9375 331.441406 109.386719 331.71875 107.839844 C 331.996094 106.296875 332.34375 104.769531 332.757812 103.253906 C 333.171875 101.742188 333.65625 100.25 334.207031 98.78125 C 334.757812 97.3125 335.371094 95.871094 336.054688 94.457031 C 336.734375 93.042969 337.476562 91.664062 338.285156 90.316406 C 339.089844 88.972656 339.953125 87.664062 340.878906 86.394531 C 341.800781 85.125 342.78125 83.902344 343.816406 82.722656 C 344.851562 81.542969 345.9375 80.410156 347.074219 79.328125 C 348.210938 78.25 349.394531 77.21875 350.625 76.246094 C 351.855469 75.269531 353.128906 74.351562 354.441406 73.492188 C 355.753906 72.632812 357.105469 71.832031 358.492188 71.09375 C 359.875 70.355469 361.292969 69.683594 362.738281 69.070312 C 364.1875 68.460938 365.65625 67.917969 367.152344 67.441406 C 368.648438 66.960938 370.164062 66.554688 371.695312 66.214844 C 373.230469 65.871094 374.773438 65.601562 376.332031 65.398438 C 377.890625 65.199219 379.453125 65.070312 381.023438 65.007812 C 382.59375 64.949219 384.160156 64.960938 385.730469 65.042969 C 387.296875 65.121094 388.859375 65.273438 390.414062 65.496094 C 391.96875 65.722656 393.507812 66.011719 395.039062 66.375 C 396.566406 66.738281 398.074219 67.167969 399.5625 67.664062 C 401.050781 68.164062 402.515625 68.726562 403.953125 69.359375 C 405.390625 69.988281 406.800781 70.683594 408.175781 71.441406 C 409.550781 72.195312 410.886719 73.015625 412.1875 73.894531 Z M 412.1875 73.863281 " fill-opacity="0.78" fill-rule="evenodd"/><path fill="#007fc6" d="M 401.035156 188.882812 C 381.238281 196.933594 354.738281 169.933594 351.171875 225 C 338.300781 216.558594 324.664062 209.625 310.253906 204.199219 C 309.664062 203.328125 309.097656 202.4375 308.558594 201.53125 C 308.019531 200.625 307.511719 199.703125 307.03125 198.761719 C 306.550781 197.824219 306.101562 196.871094 305.679688 195.902344 C 305.261719 194.9375 304.871094 193.957031 304.511719 192.964844 C 304.152344 191.972656 303.824219 190.972656 303.527344 189.960938 C 303.230469 188.949219 302.96875 187.925781 302.734375 186.898438 C 302.503906 185.871094 302.304688 184.835938 302.136719 183.792969 C 301.96875 182.753906 301.832031 181.707031 301.730469 180.660156 C 301.628906 179.609375 301.558594 178.558594 301.523438 177.503906 C 301.484375 176.449219 301.484375 175.394531 301.511719 174.34375 C 301.542969 173.289062 301.605469 172.234375 301.699219 171.1875 C 301.796875 170.136719 301.921875 169.089844 302.085938 168.046875 C 302.246094 167.003906 302.4375 165.96875 302.664062 164.941406 C 302.890625 163.910156 303.148438 162.886719 303.4375 161.875 C 303.726562 160.859375 304.050781 159.855469 304.402344 158.863281 C 304.753906 157.867188 305.136719 156.886719 305.550781 155.917969 C 305.964844 154.945312 306.410156 153.992188 306.882812 153.046875 C 307.359375 152.105469 307.859375 151.179688 308.394531 150.269531 C 308.925781 149.359375 309.484375 148.464844 310.074219 147.589844 C 310.660156 146.714844 311.277344 145.855469 311.917969 145.019531 C 312.558594 144.183594 313.226562 143.367188 313.917969 142.570312 C 314.609375 141.773438 315.328125 141 316.070312 140.25 C 316.808594 139.5 317.574219 138.773438 318.359375 138.070312 C 319.148438 137.367188 319.953125 136.6875 320.785156 136.035156 C 321.613281 135.382812 322.460938 134.757812 323.328125 134.15625 C 324.199219 133.558594 325.085938 132.984375 325.988281 132.441406 C 326.894531 131.898438 327.8125 131.382812 328.75 130.894531 C 329.683594 130.40625 330.636719 129.949219 331.601562 129.523438 C 332.566406 129.09375 333.542969 128.699219 334.535156 128.332031 C 335.523438 127.964844 336.523438 127.628906 337.535156 127.328125 C 338.546875 127.023438 339.566406 126.75 340.59375 126.511719 C 341.621094 126.269531 342.65625 126.0625 343.695312 125.886719 C 344.734375 125.710938 345.78125 125.566406 346.832031 125.457031 C 347.882812 125.347656 348.933594 125.269531 349.988281 125.226562 C 351.042969 125.179688 352.097656 125.167969 353.152344 125.191406 C 354.207031 125.210938 355.261719 125.265625 356.3125 125.351562 C 357.367188 125.441406 358.414062 125.558594 359.460938 125.710938 C 360.503906 125.863281 361.542969 126.050781 362.574219 126.265625 C 363.609375 126.484375 364.632812 126.734375 365.652344 127.015625 C 366.667969 127.296875 367.675781 127.609375 368.671875 127.953125 C 369.671875 128.300781 370.65625 128.675781 371.628906 129.082031 C 372.605469 129.488281 373.566406 129.921875 374.511719 130.390625 C 375.460938 130.855469 376.390625 131.351562 377.304688 131.875 C 378.222656 132.398438 379.121094 132.949219 380.003906 133.53125 C 380.882812 134.113281 381.746094 134.71875 382.589844 135.351562 C 383.433594 135.988281 384.253906 136.648438 385.058594 137.332031 C 385.859375 138.019531 386.640625 138.730469 387.394531 139.464844 C 388.152344 140.199219 388.886719 140.953125 389.597656 141.734375 C 390.308594 142.515625 390.992188 143.316406 391.652344 144.140625 C 392.3125 144.960938 392.945312 145.804688 393.554688 146.667969 C 394.160156 147.53125 394.738281 148.410156 395.292969 149.308594 C 395.84375 150.207031 396.367188 151.125 396.863281 152.054688 C 397.355469 152.988281 397.820312 153.933594 398.257812 154.894531 C 398.691406 155.855469 399.097656 156.828125 399.472656 157.8125 C 399.847656 158.796875 400.191406 159.796875 400.503906 160.800781 C 400.816406 161.808594 401.09375 162.824219 401.34375 163.851562 C 401.59375 164.875 401.808594 165.90625 401.992188 166.945312 C 402.175781 167.984375 402.328125 169.027344 402.445312 170.074219 C 402.566406 171.121094 402.652344 172.171875 402.703125 173.226562 C 402.757812 174.277344 402.777344 175.332031 402.761719 176.386719 C 402.75 177.441406 402.703125 178.492188 402.625 179.546875 C 402.546875 180.597656 402.433594 181.644531 402.289062 182.6875 C 402.144531 183.734375 401.96875 184.773438 401.757812 185.804688 C 401.550781 186.839844 401.308594 187.863281 401.035156 188.882812 Z M 401.035156 188.882812 " fill-opacity="0.78" fill-rule="evenodd"/><path fill="#01a6e6" d="M 371.972656 189.164062 C 361.511719 189.605469 353.078125 195.617188 351.171875 225 C 338.375 216.609375 324.816406 209.703125 310.5 204.285156 C 310.542969 202.5 310.730469 200.730469 311.0625 198.976562 C 311.394531 197.21875 311.867188 195.503906 312.480469 193.828125 C 313.09375 192.148438 313.839844 190.53125 314.71875 188.976562 C 315.597656 187.417969 316.59375 185.945312 317.714844 184.550781 C 318.835938 183.160156 320.058594 181.867188 321.390625 180.675781 C 322.722656 179.480469 324.140625 178.40625 325.648438 177.445312 C 327.15625 176.484375 328.734375 175.652344 330.378906 174.949219 C 332.019531 174.246094 333.710938 173.679688 335.449219 173.253906 C 337.183594 172.824219 338.945312 172.542969 340.726562 172.402344 C 342.507812 172.261719 344.292969 172.269531 346.074219 172.421875 C 347.855469 172.570312 349.613281 172.867188 351.347656 173.304688 C 353.078125 173.746094 354.765625 174.320312 356.40625 175.035156 C 358.042969 175.75 359.613281 176.589844 361.117188 177.5625 C 362.617188 178.53125 364.03125 179.617188 365.351562 180.820312 C 366.675781 182.023438 367.894531 183.324219 369.003906 184.722656 C 370.113281 186.121094 371.101562 187.605469 371.972656 189.164062 Z M 371.972656 189.164062 " fill-opacity="0.78" fill-rule="evenodd"/><path fill="#2063b2" d="M 419.800781 138.695312 C 418.558594 139.054688 417.410156 139.605469 416.351562 140.347656 C 412.285156 143.519531 415.066406 146.949219 415.425781 149.421875 C 415.601562 150.597656 414.535156 152.484375 411.011719 154.78125 C 415.082031 157.777344 412.347656 160.074219 410.707031 162.28125 C 403.09375 167.761719 413.6875 179.644531 401.128906 188.851562 C 388.449219 194.066406 373.039062 184.867188 362.625 191.929688 C 362.460938 190.980469 362.324219 190.027344 362.21875 189.066406 C 362.113281 188.109375 362.039062 187.148438 361.992188 186.183594 C 361.945312 185.222656 361.929688 184.257812 361.941406 183.292969 C 361.957031 182.328125 362 181.367188 362.074219 180.40625 C 362.148438 179.445312 362.25 178.484375 362.382812 177.53125 C 362.515625 176.574219 362.679688 175.625 362.871094 174.679688 C 363.0625 173.734375 363.285156 172.796875 363.535156 171.867188 C 363.785156 170.933594 364.0625 170.011719 364.371094 169.097656 C 364.679688 168.183594 365.015625 167.28125 365.378906 166.386719 C 365.742188 165.492188 366.132812 164.613281 366.550781 163.742188 C 366.96875 162.875 367.414062 162.019531 367.886719 161.179688 C 368.359375 160.335938 368.855469 159.511719 369.378906 158.699219 C 369.902344 157.890625 370.449219 157.097656 371.019531 156.320312 C 371.59375 155.542969 372.1875 154.785156 372.808594 154.042969 C 373.425781 153.304688 374.066406 152.585938 374.730469 151.886719 C 375.394531 151.183594 376.082031 150.507812 376.785156 149.847656 C 377.492188 149.191406 378.21875 148.554688 378.964844 147.945312 C 379.710938 147.332031 380.472656 146.742188 381.253906 146.175781 C 382.039062 145.613281 382.835938 145.070312 383.652344 144.554688 C 384.46875 144.039062 385.296875 143.550781 386.144531 143.085938 C 386.992188 142.621094 387.851562 142.183594 388.722656 141.773438 C 389.597656 141.359375 390.480469 140.976562 391.378906 140.621094 C 392.277344 140.265625 393.183594 139.9375 394.101562 139.636719 C 395.019531 139.335938 395.945312 139.066406 396.878906 138.824219 C 397.8125 138.582031 398.753906 138.367188 399.699219 138.183594 C 400.648438 138 401.601562 137.84375 402.558594 137.71875 C 403.515625 137.59375 404.476562 137.496094 405.4375 137.429688 C 406.402344 137.367188 407.367188 137.328125 408.332031 137.324219 C 409.296875 137.316406 410.261719 137.339844 411.226562 137.394531 C 412.1875 137.449219 413.148438 137.53125 414.109375 137.644531 C 415.066406 137.757812 416.023438 137.902344 416.972656 138.074219 C 417.921875 138.246094 418.863281 138.449219 419.800781 138.679688 Z M 419.800781 138.695312 " fill-opacity="0.78" fill-rule="evenodd"/><path fill="#12bcbc" d="M 272.585938 139.28125 C 273.179688 139.28125 273.769531 139.253906 274.359375 139.195312 C 274.949219 139.136719 275.535156 139.050781 276.117188 138.9375 C 276.699219 138.820312 277.273438 138.675781 277.839844 138.503906 C 278.410156 138.332031 278.964844 138.132812 279.515625 137.90625 C 280.0625 137.679688 280.597656 137.429688 281.121094 137.148438 C 281.644531 136.871094 282.152344 136.566406 282.644531 136.238281 C 283.136719 135.910156 283.613281 135.558594 284.074219 135.179688 C 284.53125 134.804688 284.96875 134.410156 285.390625 133.988281 C 285.808594 133.570312 286.207031 133.132812 286.582031 132.675781 C 286.960938 132.21875 287.3125 131.742188 287.640625 131.25 C 287.972656 130.757812 288.277344 130.25 288.554688 129.726562 C 288.835938 129.207031 289.089844 128.671875 289.316406 128.125 C 289.542969 127.578125 289.742188 127.019531 289.914062 126.453125 C 290.085938 125.886719 290.230469 125.3125 290.347656 124.730469 C 290.460938 124.148438 290.550781 123.566406 290.609375 122.976562 C 290.667969 122.386719 290.695312 121.796875 290.695312 121.203125 C 290.695312 120.609375 290.667969 120.019531 290.609375 119.429688 C 290.550781 118.839844 290.464844 118.253906 290.347656 117.675781 C 290.230469 117.09375 290.089844 116.519531 289.917969 115.953125 C 289.746094 115.386719 289.542969 114.828125 289.316406 114.28125 C 289.089844 113.734375 288.835938 113.199219 288.558594 112.675781 C 288.277344 112.15625 287.972656 111.648438 287.644531 111.15625 C 287.316406 110.664062 286.960938 110.1875 286.585938 109.730469 C 286.210938 109.273438 285.8125 108.832031 285.394531 108.414062 C 284.972656 107.996094 284.535156 107.597656 284.078125 107.222656 C 283.617188 106.847656 283.144531 106.496094 282.648438 106.164062 C 282.15625 105.835938 281.648438 105.53125 281.125 105.253906 C 280.601562 104.972656 280.066406 104.722656 279.519531 104.496094 C 278.972656 104.269531 278.414062 104.070312 277.847656 103.898438 C 277.277344 103.726562 276.703125 103.582031 276.121094 103.464844 C 275.542969 103.351562 274.957031 103.261719 274.363281 103.207031 C 273.773438 103.148438 273.183594 103.117188 272.589844 103.117188 C 271.996094 103.117188 271.40625 103.148438 270.816406 103.207031 C 270.226562 103.265625 269.640625 103.351562 269.058594 103.464844 C 268.476562 103.582031 267.902344 103.726562 267.335938 103.898438 C 266.765625 104.070312 266.210938 104.269531 265.664062 104.496094 C 265.113281 104.722656 264.578125 104.976562 264.054688 105.253906 C 263.535156 105.535156 263.023438 105.839844 262.53125 106.167969 C 262.039062 106.496094 261.5625 106.851562 261.105469 107.226562 C 260.648438 107.601562 260.207031 108 259.789062 108.417969 C 259.371094 108.835938 258.972656 109.277344 258.597656 109.734375 C 258.21875 110.191406 257.867188 110.667969 257.539062 111.160156 C 257.210938 111.652344 256.90625 112.160156 256.625 112.683594 C 256.347656 113.203125 256.09375 113.738281 255.867188 114.285156 C 255.640625 114.832031 255.441406 115.390625 255.269531 115.957031 C 255.097656 116.523438 254.953125 117.097656 254.835938 117.679688 C 254.722656 118.261719 254.636719 118.847656 254.578125 119.433594 C 254.519531 120.023438 254.492188 120.617188 254.492188 121.207031 C 254.492188 121.800781 254.523438 122.390625 254.582031 122.976562 C 254.640625 123.566406 254.730469 124.152344 254.84375 124.730469 C 254.960938 125.3125 255.105469 125.882812 255.277344 126.449219 C 255.453125 127.015625 255.652344 127.574219 255.878906 128.117188 C 256.105469 128.664062 256.359375 129.199219 256.640625 129.71875 C 256.917969 130.242188 257.222656 130.75 257.550781 131.238281 C 257.882812 131.730469 258.234375 132.207031 258.609375 132.664062 C 258.984375 133.121094 259.382812 133.558594 259.800781 133.976562 C 260.222656 134.394531 260.660156 134.792969 261.117188 135.167969 C 261.574219 135.542969 262.050781 135.894531 262.542969 136.222656 C 263.035156 136.554688 263.542969 136.855469 264.0625 137.136719 C 264.585938 137.414062 265.121094 137.667969 265.667969 137.894531 C 266.214844 138.121094 266.769531 138.324219 267.335938 138.496094 C 267.902344 138.667969 268.476562 138.8125 269.058594 138.929688 C 269.640625 139.042969 270.222656 139.132812 270.8125 139.191406 C 271.402344 139.25 271.992188 139.28125 272.585938 139.28125 Z M 272.585938 139.28125 " fill-opacity="0.78" fill-rule="evenodd"/><path fill="#00b9f1" d="M 310.5 164.449219 C 311.039062 164.453125 311.578125 164.425781 312.117188 164.375 C 312.65625 164.324219 313.191406 164.246094 313.722656 164.144531 C 314.253906 164.039062 314.777344 163.910156 315.296875 163.753906 C 315.816406 163.597656 316.324219 163.417969 316.824219 163.210938 C 317.324219 163.007812 317.8125 162.777344 318.292969 162.523438 C 318.769531 162.269531 319.234375 161.992188 319.683594 161.695312 C 320.136719 161.394531 320.570312 161.074219 320.988281 160.734375 C 321.40625 160.390625 321.808594 160.03125 322.191406 159.648438 C 322.578125 159.265625 322.941406 158.867188 323.285156 158.449219 C 323.628906 158.035156 323.953125 157.601562 324.253906 157.152344 C 324.554688 156.703125 324.832031 156.242188 325.089844 155.765625 C 325.347656 155.289062 325.578125 154.800781 325.785156 154.300781 C 325.996094 153.804688 326.175781 153.296875 326.335938 152.777344 C 326.492188 152.261719 326.625 151.738281 326.734375 151.207031 C 326.839844 150.679688 326.917969 150.144531 326.972656 149.609375 C 327.027344 149.070312 327.054688 148.53125 327.054688 147.988281 C 327.058594 147.449219 327.03125 146.910156 326.980469 146.371094 C 326.929688 145.835938 326.851562 145.300781 326.746094 144.769531 C 326.640625 144.238281 326.511719 143.714844 326.355469 143.199219 C 326.199219 142.679688 326.015625 142.171875 325.808594 141.671875 C 325.605469 141.171875 325.375 140.683594 325.121094 140.207031 C 324.863281 139.730469 324.589844 139.265625 324.289062 138.816406 C 323.988281 138.367188 323.667969 137.933594 323.324219 137.515625 C 322.980469 137.097656 322.621094 136.695312 322.238281 136.3125 C 321.855469 135.929688 321.457031 135.566406 321.039062 135.222656 C 320.621094 134.882812 320.1875 134.558594 319.738281 134.257812 C 319.289062 133.957031 318.824219 133.679688 318.347656 133.421875 C 317.871094 133.167969 317.382812 132.9375 316.882812 132.730469 C 316.382812 132.523438 315.875 132.339844 315.355469 132.183594 C 314.839844 132.023438 314.316406 131.894531 313.785156 131.785156 C 313.253906 131.679688 312.71875 131.601562 312.179688 131.546875 C 311.640625 131.496094 311.101562 131.46875 310.5625 131.464844 C 310.019531 131.464844 309.480469 131.492188 308.941406 131.542969 C 308.402344 131.597656 307.867188 131.675781 307.339844 131.78125 C 306.808594 131.886719 306.28125 132.015625 305.765625 132.171875 C 305.246094 132.328125 304.738281 132.511719 304.238281 132.71875 C 303.738281 132.925781 303.25 133.15625 302.773438 133.410156 C 302.296875 133.664062 301.832031 133.941406 301.382812 134.242188 C 300.929688 134.539062 300.496094 134.863281 300.078125 135.203125 C 299.660156 135.546875 299.257812 135.910156 298.875 136.292969 C 298.492188 136.671875 298.128906 137.074219 297.789062 137.492188 C 297.445312 137.910156 297.121094 138.34375 296.820312 138.792969 C 296.519531 139.242188 296.242188 139.703125 295.988281 140.179688 C 295.730469 140.65625 295.5 141.144531 295.292969 141.644531 C 295.085938 142.144531 294.902344 142.652344 294.746094 143.167969 C 294.589844 143.6875 294.457031 144.210938 294.351562 144.738281 C 294.246094 145.269531 294.167969 145.804688 294.113281 146.339844 C 294.0625 146.878906 294.035156 147.417969 294.035156 147.957031 C 294.035156 148.496094 294.0625 149.035156 294.117188 149.570312 C 294.171875 150.109375 294.25 150.640625 294.355469 151.167969 C 294.460938 151.695312 294.59375 152.21875 294.75 152.734375 C 294.90625 153.25 295.089844 153.757812 295.296875 154.253906 C 295.503906 154.753906 295.734375 155.238281 295.988281 155.714844 C 296.242188 156.1875 296.519531 156.652344 296.816406 157.097656 C 297.117188 157.546875 297.4375 157.980469 297.78125 158.398438 C 298.121094 158.8125 298.484375 159.214844 298.863281 159.59375 C 299.246094 159.976562 299.644531 160.339844 300.058594 160.679688 C 300.476562 161.023438 300.90625 161.34375 301.355469 161.644531 C 301.804688 161.945312 302.265625 162.222656 302.742188 162.480469 C 303.214844 162.734375 303.703125 162.964844 304.199219 163.171875 C 304.699219 163.382812 305.203125 163.5625 305.71875 163.722656 C 306.234375 163.882812 306.757812 164.011719 307.285156 164.121094 C 307.816406 164.226562 308.347656 164.308594 308.882812 164.363281 C 309.421875 164.417969 309.960938 164.449219 310.5 164.449219 Z M 310.5 164.449219 " fill-opacity="0.78" fill-rule="evenodd"/><path fill="#8dc63f" d="M 269.984375 95.28125 C 270.816406 95.28125 271.640625 95.199219 272.457031 95.035156 C 273.273438 94.875 274.066406 94.632812 274.835938 94.316406 C 275.605469 93.996094 276.339844 93.605469 277.03125 93.144531 C 277.722656 92.679688 278.363281 92.15625 278.953125 91.566406 C 279.542969 90.980469 280.066406 90.339844 280.53125 89.648438 C 280.992188 88.957031 281.382812 88.226562 281.703125 87.457031 C 282.019531 86.6875 282.261719 85.894531 282.425781 85.078125 C 282.585938 84.261719 282.667969 83.4375 282.667969 82.605469 C 282.667969 81.773438 282.585938 80.949219 282.421875 80.132812 C 282.261719 79.316406 282.019531 78.527344 281.699219 77.757812 C 281.382812 76.988281 280.992188 76.257812 280.527344 75.566406 C 280.066406 74.875 279.539062 74.234375 278.949219 73.648438 C 278.359375 73.058594 277.71875 72.535156 277.027344 72.070312 C 276.332031 71.609375 275.601562 71.21875 274.832031 70.902344 C 274.0625 70.582031 273.269531 70.34375 272.453125 70.179688 C 271.636719 70.019531 270.808594 69.9375 269.976562 69.9375 C 269.144531 69.9375 268.320312 70.019531 267.503906 70.183594 C 266.683594 70.347656 265.890625 70.585938 265.121094 70.90625 C 264.351562 71.222656 263.621094 71.613281 262.929688 72.078125 C 262.238281 72.539062 261.597656 73.066406 261.007812 73.65625 C 260.417969 74.242188 259.894531 74.882812 259.429688 75.574219 C 258.96875 76.265625 258.578125 76.996094 258.261719 77.765625 C 257.941406 78.535156 257.703125 79.328125 257.539062 80.144531 C 257.378906 80.960938 257.296875 81.785156 257.296875 82.617188 C 257.300781 83.449219 257.382812 84.273438 257.546875 85.085938 C 257.707031 85.902344 257.949219 86.691406 258.269531 87.460938 C 258.589844 88.230469 258.980469 88.957031 259.441406 89.648438 C 259.90625 90.339844 260.429688 90.980469 261.019531 91.566406 C 261.609375 92.15625 262.25 92.679688 262.941406 93.140625 C 263.632812 93.601562 264.363281 93.992188 265.132812 94.3125 C 265.902344 94.628906 266.695312 94.871094 267.511719 95.035156 C 268.324219 95.195312 269.148438 95.277344 269.984375 95.28125 Z M 269.984375 95.28125 " fill-opacity="0.78" fill-rule="evenodd"/><g clip-path="url(#fdae9a55b6)"><path fill="#ffd900" d="M 263.65625 51.128906 C 263.65625 51.847656 263.585938 52.5625 263.445312 53.269531 C 263.304688 53.976562 263.09375 54.660156 262.820312 55.328125 C 262.542969 55.992188 262.207031 56.625 261.804688 57.222656 C 261.402344 57.824219 260.949219 58.378906 260.4375 58.886719 C 259.929688 59.394531 259.375 59.851562 258.773438 60.25 C 258.175781 60.652344 257.542969 60.988281 256.875 61.265625 C 256.210938 61.539062 255.523438 61.75 254.816406 61.890625 C 254.109375 62.03125 253.394531 62.101562 252.671875 62.101562 C 251.949219 62.101562 251.238281 62.03125 250.53125 61.890625 C 249.820312 61.75 249.136719 61.539062 248.46875 61.265625 C 247.800781 60.988281 247.167969 60.652344 246.570312 60.25 C 245.96875 59.851562 245.414062 59.394531 244.90625 58.886719 C 244.394531 58.378906 243.941406 57.824219 243.539062 57.222656 C 243.140625 56.625 242.800781 55.992188 242.523438 55.328125 C 242.25 54.660156 242.039062 53.976562 241.898438 53.269531 C 241.757812 52.5625 241.6875 51.847656 241.6875 51.128906 C 241.6875 50.40625 241.757812 49.695312 241.898438 48.988281 C 242.039062 48.28125 242.25 47.59375 242.523438 46.929688 C 242.800781 46.265625 243.140625 45.632812 243.539062 45.035156 C 243.941406 44.433594 244.394531 43.878906 244.90625 43.371094 C 245.414062 42.863281 245.96875 42.40625 246.570312 42.007812 C 247.167969 41.605469 247.800781 41.269531 248.46875 40.992188 C 249.136719 40.714844 249.820312 40.507812 250.53125 40.367188 C 251.238281 40.226562 251.949219 40.15625 252.671875 40.15625 C 253.394531 40.15625 254.109375 40.226562 254.816406 40.367188 C 255.523438 40.507812 256.210938 40.714844 256.875 40.992188 C 257.542969 41.269531 258.175781 41.605469 258.773438 42.007812 C 259.375 42.40625 259.929688 42.863281 260.4375 43.371094 C 260.949219 43.878906 261.402344 44.433594 261.804688 45.035156 C 262.207031 45.632812 262.542969 46.265625 262.820312 46.929688 C 263.09375 47.59375 263.304688 48.28125 263.445312 48.988281 C 263.585938 49.695312 263.65625 50.40625 263.65625 51.128906 Z M 263.65625 51.128906 " fill-opacity="0.78" fill-rule="nonzero"/></g><path fill="#009444" d="M 275.878906 31.027344 C 276.550781 31.027344 277.21875 30.960938 277.878906 30.832031 C 278.539062 30.699219 279.179688 30.507812 279.804688 30.25 C 280.425781 29.992188 281.015625 29.675781 281.578125 29.304688 C 282.136719 28.929688 282.65625 28.507812 283.132812 28.03125 C 283.609375 27.554688 284.035156 27.039062 284.410156 26.480469 C 284.785156 25.921875 285.097656 25.328125 285.359375 24.707031 C 285.617188 24.085938 285.8125 23.445312 285.941406 22.789062 C 286.074219 22.128906 286.140625 21.460938 286.140625 20.789062 C 286.140625 20.117188 286.074219 19.449219 285.945312 18.789062 C 285.8125 18.128906 285.617188 17.488281 285.363281 16.867188 C 285.105469 16.246094 284.789062 15.65625 284.414062 15.097656 C 284.039062 14.535156 283.617188 14.019531 283.140625 13.542969 C 282.664062 13.066406 282.144531 12.644531 281.585938 12.269531 C 281.027344 11.894531 280.433594 11.578125 279.8125 11.320312 C 279.191406 11.0625 278.550781 10.871094 277.890625 10.738281 C 277.230469 10.605469 276.5625 10.539062 275.886719 10.539062 C 275.214844 10.539062 274.546875 10.605469 273.886719 10.738281 C 273.226562 10.867188 272.585938 11.0625 271.964844 11.320312 C 271.339844 11.578125 270.75 11.890625 270.191406 12.265625 C 269.628906 12.640625 269.113281 13.0625 268.636719 13.539062 C 268.160156 14.015625 267.734375 14.53125 267.359375 15.09375 C 266.984375 15.652344 266.671875 16.242188 266.414062 16.863281 C 266.15625 17.484375 265.960938 18.125 265.828125 18.785156 C 265.695312 19.445312 265.632812 20.109375 265.632812 20.785156 C 265.632812 21.457031 265.699219 22.121094 265.832031 22.78125 C 265.960938 23.4375 266.15625 24.078125 266.414062 24.699219 C 266.671875 25.320312 266.988281 25.910156 267.363281 26.46875 C 267.738281 27.027344 268.160156 27.542969 268.636719 28.019531 C 269.113281 28.496094 269.628906 28.917969 270.1875 29.292969 C 270.746094 29.667969 271.335938 29.980469 271.957031 30.242188 C 272.578125 30.5 273.21875 30.695312 273.878906 30.824219 C 274.539062 30.957031 275.207031 31.023438 275.878906 31.027344 Z M 275.878906 31.027344 " fill-opacity="0.78" fill-rule="evenodd"/><path fill="#56ba48" d="M 279.359375 56.554688 C 279.804688 56.554688 280.246094 56.511719 280.679688 56.425781 C 281.117188 56.339844 281.539062 56.210938 281.949219 56.039062 C 282.363281 55.871094 282.753906 55.660156 283.121094 55.414062 C 283.492188 55.167969 283.835938 54.886719 284.148438 54.574219 C 284.464844 54.257812 284.742188 53.917969 284.992188 53.546875 C 285.238281 53.179688 285.445312 52.789062 285.617188 52.378906 C 285.789062 51.96875 285.914062 51.546875 286.003906 51.109375 C 286.089844 50.671875 286.132812 50.234375 286.132812 49.789062 C 286.132812 49.34375 286.089844 48.90625 286.003906 48.46875 C 285.914062 48.035156 285.789062 47.609375 285.617188 47.199219 C 285.445312 46.789062 285.238281 46.398438 284.992188 46.03125 C 284.742188 45.660156 284.464844 45.320312 284.148438 45.003906 C 283.835938 44.691406 283.492188 44.410156 283.121094 44.164062 C 282.753906 43.917969 282.363281 43.707031 281.949219 43.539062 C 281.539062 43.367188 281.117188 43.238281 280.679688 43.152344 C 280.246094 43.066406 279.804688 43.023438 279.359375 43.023438 C 278.914062 43.023438 278.472656 43.066406 278.039062 43.152344 C 277.601562 43.238281 277.175781 43.367188 276.765625 43.539062 C 276.355469 43.707031 275.964844 43.917969 275.597656 44.164062 C 275.226562 44.410156 274.882812 44.691406 274.570312 45.003906 C 274.253906 45.320312 273.972656 45.660156 273.726562 46.03125 C 273.480469 46.398438 273.269531 46.789062 273.101562 47.199219 C 272.929688 47.609375 272.800781 48.035156 272.714844 48.46875 C 272.628906 48.90625 272.585938 49.34375 272.585938 49.789062 C 272.585938 50.234375 272.628906 50.671875 272.71875 51.109375 C 272.804688 51.542969 272.933594 51.964844 273.105469 52.375 C 273.277344 52.785156 273.484375 53.175781 273.730469 53.542969 C 273.980469 53.914062 274.257812 54.253906 274.574219 54.570312 C 274.886719 54.882812 275.230469 55.164062 275.597656 55.410156 C 275.96875 55.65625 276.359375 55.867188 276.769531 56.035156 C 277.179688 56.207031 277.601562 56.335938 278.039062 56.421875 C 278.472656 56.511719 278.914062 56.554688 279.359375 56.554688 Z M 279.359375 56.554688 " fill-opacity="0.78" fill-rule="evenodd"/><path fill="#fbad17" d="M 293.488281 13.53125 C 293.929688 13.53125 294.371094 13.488281 294.808594 13.402344 C 295.242188 13.316406 295.667969 13.1875 296.078125 13.015625 C 296.488281 12.847656 296.878906 12.636719 297.25 12.390625 C 297.621094 12.144531 297.960938 11.863281 298.277344 11.550781 C 298.589844 11.234375 298.871094 10.894531 299.117188 10.523438 C 299.367188 10.15625 299.574219 9.765625 299.746094 9.355469 C 299.914062 8.945312 300.042969 8.523438 300.128906 8.085938 C 300.214844 7.648438 300.261719 7.210938 300.261719 6.765625 C 300.261719 6.320312 300.214844 5.882812 300.128906 5.445312 C 300.042969 5.011719 299.914062 4.585938 299.746094 4.175781 C 299.574219 3.765625 299.367188 3.375 299.117188 3.007812 C 298.871094 2.636719 298.589844 2.296875 298.277344 1.980469 C 297.960938 1.667969 297.621094 1.386719 297.25 1.140625 C 296.878906 0.894531 296.488281 0.683594 296.078125 0.515625 C 295.667969 0.34375 295.242188 0.214844 294.808594 0.128906 C 294.371094 0.0429688 293.929688 0 293.488281 0 C 293.042969 0 292.601562 0.0429688 292.164062 0.128906 C 291.730469 0.214844 291.304688 0.34375 290.894531 0.515625 C 290.484375 0.683594 290.09375 0.894531 289.722656 1.140625 C 289.351562 1.386719 289.011719 1.667969 288.695312 1.980469 C 288.382812 2.296875 288.101562 2.636719 287.855469 3.007812 C 287.605469 3.375 287.398438 3.765625 287.226562 4.175781 C 287.058594 4.585938 286.929688 5.011719 286.84375 5.445312 C 286.757812 5.882812 286.710938 6.320312 286.710938 6.765625 C 286.714844 7.210938 286.757812 7.648438 286.84375 8.085938 C 286.933594 8.519531 287.0625 8.941406 287.234375 9.351562 C 287.402344 9.761719 287.613281 10.152344 287.859375 10.519531 C 288.105469 10.890625 288.386719 11.230469 288.703125 11.546875 C 289.015625 11.859375 289.355469 12.140625 289.726562 12.386719 C 290.097656 12.632812 290.484375 12.84375 290.898438 13.011719 C 291.308594 13.183594 291.730469 13.3125 292.164062 13.398438 C 292.601562 13.488281 293.042969 13.53125 293.488281 13.53125 Z M 293.488281 13.53125 " fill-opacity="0.78" fill-rule="evenodd"/><path fill="#f15c22" d="M 251.878906 28.613281 C 252.214844 28.613281 252.550781 28.578125 252.878906 28.511719 C 253.207031 28.445312 253.527344 28.347656 253.839844 28.214844 C 254.148438 28.085938 254.445312 27.925781 254.722656 27.738281 C 255 27.550781 255.257812 27.339844 255.496094 27.101562 C 255.734375 26.863281 255.945312 26.601562 256.128906 26.324219 C 256.316406 26.042969 256.472656 25.746094 256.601562 25.4375 C 256.726562 25.125 256.824219 24.804688 256.890625 24.476562 C 256.953125 24.144531 256.984375 23.8125 256.984375 23.476562 C 256.984375 23.140625 256.949219 22.808594 256.882812 22.480469 C 256.816406 22.148438 256.71875 21.832031 256.589844 21.519531 C 256.457031 21.210938 256.300781 20.914062 256.113281 20.636719 C 255.925781 20.359375 255.710938 20.101562 255.472656 19.863281 C 255.234375 19.625 254.976562 19.414062 254.695312 19.230469 C 254.417969 19.042969 254.121094 18.886719 253.808594 18.757812 C 253.5 18.628906 253.179688 18.535156 252.847656 18.46875 C 252.519531 18.402344 252.183594 18.371094 251.847656 18.371094 C 251.511719 18.371094 251.179688 18.40625 250.851562 18.472656 C 250.519531 18.539062 250.199219 18.632812 249.890625 18.761719 C 249.578125 18.894531 249.285156 19.050781 249.003906 19.238281 C 248.726562 19.425781 248.464844 19.636719 248.226562 19.875 C 247.992188 20.113281 247.777344 20.371094 247.59375 20.648438 C 247.40625 20.929688 247.246094 21.222656 247.117188 21.535156 C 246.992188 21.84375 246.894531 22.164062 246.828125 22.496094 C 246.761719 22.824219 246.730469 23.15625 246.730469 23.492188 C 246.730469 23.828125 246.765625 24.164062 246.832031 24.492188 C 246.898438 24.824219 246.996094 25.144531 247.125 25.457031 C 247.257812 25.765625 247.414062 26.0625 247.601562 26.34375 C 247.792969 26.621094 248.003906 26.878906 248.246094 27.117188 C 248.484375 27.355469 248.742188 27.566406 249.023438 27.753906 C 249.304688 27.941406 249.601562 28.097656 249.914062 28.226562 C 250.226562 28.355469 250.546875 28.453125 250.878906 28.515625 C 251.207031 28.582031 251.542969 28.613281 251.878906 28.613281 Z M 251.878906 28.613281 " fill-opacity="0.78" fill-rule="evenodd"/><path fill="#fbad17" d="M 373.757812 80.863281 C 373.757812 82.265625 373.691406 83.664062 373.550781 85.058594 C 373.414062 86.453125 373.210938 87.835938 372.933594 89.210938 C 372.660156 90.585938 372.320312 91.945312 371.914062 93.285156 C 371.507812 94.628906 371.035156 95.945312 370.496094 97.242188 C 369.960938 98.535156 369.359375 99.800781 368.699219 101.035156 C 368.039062 102.273438 367.316406 103.472656 366.539062 104.640625 C 365.757812 105.804688 364.921875 106.929688 364.035156 108.011719 C 363.144531 109.097656 362.203125 110.132812 361.210938 111.125 C 360.21875 112.117188 359.179688 113.054688 358.09375 113.945312 C 357.007812 114.835938 355.882812 115.667969 354.71875 116.445312 C 353.550781 117.226562 352.347656 117.945312 351.109375 118.605469 C 349.875 119.265625 348.605469 119.863281 347.308594 120.402344 C 346.011719 120.9375 344.695312 121.410156 343.351562 121.816406 C 342.007812 122.222656 340.648438 122.5625 339.273438 122.835938 C 337.894531 123.109375 336.507812 123.316406 335.113281 123.453125 C 333.71875 123.589844 332.316406 123.660156 330.914062 123.660156 C 329.511719 123.660156 328.109375 123.589844 326.714844 123.453125 C 325.316406 123.316406 323.929688 123.109375 322.554688 122.835938 C 321.179688 122.5625 319.820312 122.222656 318.476562 121.816406 C 317.132812 121.410156 315.8125 120.9375 314.519531 120.402344 C 313.222656 119.863281 311.953125 119.265625 310.71875 118.605469 C 309.480469 117.945312 308.277344 117.226562 307.109375 116.445312 C 305.945312 115.667969 304.816406 114.835938 303.734375 113.945312 C 302.648438 113.054688 301.609375 112.117188 300.617188 111.125 C 299.625 110.132812 298.683594 109.097656 297.792969 108.011719 C 296.902344 106.929688 296.070312 105.804688 295.289062 104.640625 C 294.511719 103.472656 293.789062 102.273438 293.128906 101.035156 C 292.464844 99.800781 291.867188 98.535156 291.332031 97.242188 C 290.792969 95.945312 290.320312 94.628906 289.914062 93.285156 C 289.507812 91.945312 289.167969 90.585938 288.890625 89.210938 C 288.617188 87.835938 288.414062 86.453125 288.273438 85.058594 C 288.136719 83.664062 288.070312 82.265625 288.070312 80.863281 C 288.070312 79.460938 288.136719 78.0625 288.273438 76.667969 C 288.414062 75.273438 288.617188 73.886719 288.890625 72.511719 C 289.167969 71.140625 289.507812 69.78125 289.914062 68.441406 C 290.320312 67.097656 290.792969 65.78125 291.332031 64.484375 C 291.867188 63.191406 292.464844 61.925781 293.128906 60.6875 C 293.789062 59.453125 294.511719 58.25 295.289062 57.085938 C 296.070312 55.921875 296.902344 54.796875 297.792969 53.714844 C 298.683594 52.628906 299.625 51.59375 300.617188 50.601562 C 301.609375 49.609375 302.648438 48.671875 303.734375 47.78125 C 304.816406 46.890625 305.945312 46.058594 307.109375 45.277344 C 308.277344 44.5 309.480469 43.78125 310.71875 43.121094 C 311.953125 42.460938 313.222656 41.859375 314.519531 41.324219 C 315.8125 40.789062 317.132812 40.316406 318.476562 39.910156 C 319.820312 39.503906 321.179688 39.164062 322.554688 38.890625 C 323.929688 38.617188 325.316406 38.410156 326.714844 38.273438 C 328.109375 38.136719 329.511719 38.066406 330.914062 38.066406 C 332.316406 38.066406 333.71875 38.136719 335.113281 38.273438 C 336.507812 38.410156 337.894531 38.617188 339.273438 38.890625 C 340.648438 39.164062 342.007812 39.503906 343.351562 39.910156 C 344.695312 40.316406 346.011719 40.789062 347.308594 41.324219 C 348.605469 41.859375 349.875 42.460938 351.109375 43.121094 C 352.347656 43.78125 353.550781 44.5 354.71875 45.277344 C 355.882812 46.058594 357.007812 46.890625 358.09375 47.78125 C 359.179688 48.671875 360.21875 49.609375 361.210938 50.601562 C 362.203125 51.59375 363.144531 52.628906 364.035156 53.714844 C 364.921875 54.796875 365.757812 55.921875 366.539062 57.085938 C 367.316406 58.25 368.039062 59.453125 368.699219 60.6875 C 369.359375 61.925781 369.960938 63.191406 370.496094 64.484375 C 371.035156 65.78125 371.507812 67.097656 371.914062 68.441406 C 372.320312 69.78125 372.660156 71.140625 372.933594 72.511719 C 373.210938 73.886719 373.414062 75.273438 373.550781 76.667969 C 373.691406 78.0625 373.757812 79.460938 373.757812 80.863281 Z M 373.757812 80.863281 " fill-opacity="0.78" fill-rule="nonzero"/><path fill="#ec008b" d="M 354.582031 16.085938 C 375.113281 20.3125 392.316406 30.585938 402.460938 45.363281 C 402.375 45.992188 402.265625 46.613281 402.140625 47.230469 C 402.015625 47.851562 401.871094 48.464844 401.707031 49.074219 C 401.542969 49.6875 401.359375 50.289062 401.160156 50.890625 C 400.957031 51.488281 400.738281 52.082031 400.5 52.664062 C 400.261719 53.25 400.007812 53.828125 399.730469 54.398438 C 399.457031 54.96875 399.167969 55.527344 398.859375 56.078125 C 398.550781 56.628906 398.222656 57.171875 397.882812 57.703125 C 397.539062 58.234375 397.183594 58.753906 396.808594 59.261719 C 396.433594 59.773438 396.042969 60.269531 395.636719 60.753906 C 395.230469 61.238281 394.8125 61.710938 394.378906 62.171875 C 393.941406 62.628906 393.496094 63.074219 393.03125 63.507812 C 392.570312 63.9375 392.09375 64.355469 391.609375 64.753906 C 391.121094 65.15625 390.621094 65.542969 390.109375 65.914062 C 389.59375 66.285156 389.074219 66.640625 388.539062 66.980469 C 388.003906 67.316406 387.460938 67.640625 386.90625 67.945312 C 386.351562 68.25 385.789062 68.535156 385.21875 68.804688 C 384.644531 69.074219 384.066406 69.328125 383.480469 69.5625 C 382.890625 69.796875 382.296875 70.011719 381.695312 70.210938 C 381.097656 70.40625 380.488281 70.585938 379.878906 70.746094 C 379.265625 70.90625 378.648438 71.046875 378.03125 71.167969 C 377.410156 71.289062 376.785156 71.390625 376.160156 71.476562 C 375.53125 71.558594 374.902344 71.621094 374.273438 71.664062 C 373.640625 71.710938 373.007812 71.734375 372.375 71.738281 C 371.746094 71.746094 371.113281 71.730469 370.480469 71.695312 C 369.847656 71.664062 369.21875 71.609375 368.589844 71.535156 C 367.964844 71.460938 367.335938 71.371094 366.714844 71.257812 C 366.09375 71.148438 365.472656 71.015625 364.859375 70.867188 C 364.246094 70.714844 363.636719 70.546875 363.03125 70.359375 C 362.429688 70.171875 361.832031 69.964844 361.238281 69.742188 C 360.648438 69.515625 360.066406 69.273438 359.488281 69.011719 C 358.914062 68.753906 358.347656 68.472656 357.785156 68.179688 C 357.226562 67.882812 356.679688 67.570312 356.140625 67.238281 C 355.601562 66.910156 355.070312 66.5625 354.554688 66.199219 C 354.035156 65.839844 353.53125 65.460938 353.035156 65.066406 C 352.539062 64.671875 352.058594 64.265625 351.589844 63.839844 C 351.121094 63.417969 350.664062 62.976562 350.222656 62.527344 C 349.78125 62.074219 349.355469 61.609375 348.941406 61.132812 C 348.527344 60.652344 348.128906 60.160156 347.746094 59.660156 C 347.363281 59.15625 347 58.640625 346.648438 58.117188 C 346.296875 57.589844 345.960938 57.054688 345.644531 56.507812 C 345.328125 55.960938 345.027344 55.40625 344.746094 54.839844 C 344.460938 54.277344 344.195312 53.703125 343.949219 53.121094 C 343.703125 52.539062 343.472656 51.953125 343.261719 51.355469 C 343.050781 50.761719 342.859375 50.160156 342.683594 49.550781 C 342.511719 48.945312 342.355469 48.332031 342.21875 47.714844 C 342.085938 47.097656 341.96875 46.476562 341.871094 45.851562 C 341.773438 45.230469 341.695312 44.601562 341.636719 43.972656 C 341.578125 43.34375 341.539062 42.714844 341.519531 42.082031 C 341.503906 41.453125 341.503906 40.820312 341.523438 40.1875 C 341.542969 39.558594 341.582031 38.925781 341.640625 38.296875 C 341.699219 37.667969 341.777344 37.042969 341.875 36.417969 C 341.972656 35.792969 342.089844 35.171875 342.226562 34.558594 C 342.363281 33.941406 342.519531 33.328125 342.695312 32.71875 C 342.867188 32.113281 343.0625 31.511719 343.273438 30.917969 C 343.484375 30.320312 343.714844 29.734375 343.960938 29.152344 C 344.210938 28.570312 344.476562 28 344.761719 27.433594 C 345.042969 26.867188 345.34375 26.3125 345.664062 25.769531 C 345.980469 25.222656 346.316406 24.6875 346.667969 24.160156 C 347.019531 23.636719 347.386719 23.121094 347.769531 22.621094 C 348.152344 22.117188 348.550781 21.625 348.964844 21.148438 C 349.378906 20.671875 349.804688 20.207031 350.246094 19.753906 C 350.691406 19.304688 351.144531 18.867188 351.617188 18.441406 C 352.085938 18.019531 352.566406 17.609375 353.0625 17.21875 C 353.558594 16.824219 354.0625 16.445312 354.582031 16.085938 Z M 354.582031 16.085938 " fill-opacity="0.78" fill-rule="evenodd"/><path fill="#56ba48" d="M 316.488281 62.109375 C 317.328125 62.109375 318.167969 62.066406 319.003906 61.984375 C 319.839844 61.902344 320.671875 61.78125 321.496094 61.617188 C 322.320312 61.453125 323.132812 61.25 323.9375 61.007812 C 324.742188 60.761719 325.53125 60.480469 326.308594 60.160156 C 327.085938 59.839844 327.84375 59.480469 328.585938 59.085938 C 329.328125 58.6875 330.046875 58.257812 330.746094 57.792969 C 331.445312 57.324219 332.121094 56.828125 332.769531 56.292969 C 333.417969 55.761719 334.042969 55.199219 334.636719 54.605469 C 335.230469 54.011719 335.792969 53.390625 336.328125 52.742188 C 336.859375 52.09375 337.359375 51.417969 337.828125 50.722656 C 338.296875 50.023438 338.726562 49.304688 339.125 48.5625 C 339.519531 47.824219 339.878906 47.066406 340.199219 46.289062 C 340.523438 45.515625 340.804688 44.726562 341.050781 43.921875 C 341.292969 43.121094 341.496094 42.304688 341.660156 41.484375 C 341.824219 40.660156 341.949219 39.828125 342.03125 38.996094 C 342.113281 38.160156 342.15625 37.320312 342.15625 36.480469 C 342.15625 35.640625 342.117188 34.804688 342.03125 33.96875 C 341.949219 33.132812 341.828125 32.304688 341.664062 31.480469 C 341.5 30.65625 341.296875 29.84375 341.050781 29.042969 C 340.808594 28.238281 340.527344 27.449219 340.203125 26.671875 C 339.882812 25.898438 339.523438 25.140625 339.128906 24.398438 C 338.730469 23.65625 338.300781 22.9375 337.835938 22.242188 C 337.367188 21.542969 336.867188 20.867188 336.335938 20.21875 C 335.800781 19.570312 335.238281 18.949219 334.644531 18.355469 C 334.050781 17.761719 333.425781 17.199219 332.777344 16.667969 C 332.128906 16.132812 331.453125 15.632812 330.753906 15.167969 C 330.054688 14.699219 329.335938 14.269531 328.59375 13.875 C 327.855469 13.476562 327.09375 13.121094 326.320312 12.796875 C 325.542969 12.476562 324.753906 12.195312 323.949219 11.949219 C 323.144531 11.707031 322.328125 11.503906 321.503906 11.339844 C 320.679688 11.175781 319.851562 11.050781 319.015625 10.96875 C 318.179688 10.886719 317.339844 10.847656 316.5 10.847656 C 315.660156 10.847656 314.820312 10.886719 313.984375 10.96875 C 313.148438 11.050781 312.316406 11.175781 311.492188 11.339844 C 310.667969 11.5 309.855469 11.707031 309.050781 11.949219 C 308.246094 12.191406 307.453125 12.476562 306.679688 12.796875 C 305.902344 13.117188 305.144531 13.476562 304.402344 13.871094 C 303.660156 14.265625 302.941406 14.699219 302.242188 15.164062 C 301.542969 15.632812 300.867188 16.128906 300.21875 16.664062 C 299.570312 17.195312 298.949219 17.757812 298.351562 18.351562 C 297.757812 18.945312 297.195312 19.566406 296.660156 20.214844 C 296.128906 20.863281 295.628906 21.539062 295.160156 22.234375 C 294.695312 22.933594 294.261719 23.652344 293.867188 24.394531 C 293.46875 25.132812 293.113281 25.890625 292.789062 26.667969 C 292.46875 27.441406 292.183594 28.234375 291.941406 29.035156 C 291.699219 29.839844 291.492188 30.652344 291.328125 31.476562 C 291.164062 32.300781 291.042969 33.128906 290.960938 33.964844 C 290.878906 34.800781 290.835938 35.636719 290.835938 36.476562 C 290.839844 37.316406 290.878906 38.152344 290.964844 38.988281 C 291.046875 39.820312 291.171875 40.648438 291.335938 41.472656 C 291.503906 42.296875 291.707031 43.109375 291.953125 43.910156 C 292.195312 44.710938 292.480469 45.5 292.800781 46.277344 C 293.125 47.050781 293.484375 47.808594 293.878906 48.546875 C 294.273438 49.289062 294.707031 50.003906 295.171875 50.703125 C 295.640625 51.398438 296.140625 52.074219 296.671875 52.722656 C 297.207031 53.371094 297.769531 53.992188 298.363281 54.585938 C 298.957031 55.175781 299.578125 55.738281 300.226562 56.273438 C 300.875 56.804688 301.550781 57.304688 302.246094 57.769531 C 302.945312 58.238281 303.664062 58.667969 304.40625 59.066406 C 305.144531 59.460938 305.902344 59.820312 306.679688 60.140625 C 307.453125 60.464844 308.242188 60.746094 309.046875 60.992188 C 309.851562 61.234375 310.664062 61.441406 311.488281 61.605469 C 312.308594 61.769531 313.140625 61.894531 313.976562 61.980469 C 314.8125 62.0625 315.648438 62.105469 316.488281 62.109375 Z M 316.488281 62.109375 " fill-opacity="0.78" fill-rule="evenodd"/><g fill="#000000" fill-opacity="1"><g transform="translate(584.292762, 169.692407)"><g><path d="M 5.921875 -7.203125 C 2.804688 -7.921875 1.25 -9.253906 1.25 -11.203125 C 1.25 -12.628906 1.753906 -13.703125 2.765625 -14.421875 C 3.765625 -15.128906 4.9375 -15.484375 6.28125 -15.484375 C 9.257812 -15.484375 11.023438 -14.375 11.578125 -12.15625 L 9.875 -12.15625 C 9.570312 -13.476562 8.375 -14.140625 6.28125 -14.140625 C 4.8125 -14.140625 3.785156 -13.703125 3.203125 -12.828125 C 2.984375 -12.503906 2.875 -12.09375 2.875 -11.59375 C 2.875 -10.65625 3.378906 -9.929688 4.390625 -9.421875 C 4.867188 -9.171875 5.890625 -8.84375 7.453125 -8.4375 C 9.003906 -8.03125 10.132812 -7.582031 10.84375 -7.09375 C 11.8125 -6.40625 12.296875 -5.441406 12.296875 -4.203125 C 12.296875 -2.660156 11.691406 -1.492188 10.484375 -0.703125 C 9.460938 -0.0351562 8.203125 0.296875 6.703125 0.296875 C 3.328125 0.296875 1.367188 -0.988281 0.828125 -3.5625 L 2.6875 -3.5625 C 2.976562 -1.945312 4.316406 -1.140625 6.703125 -1.140625 C 8.410156 -1.140625 9.601562 -1.613281 10.28125 -2.5625 C 10.550781 -2.9375 10.6875 -3.441406 10.6875 -4.078125 C 10.6875 -4.710938 10.4375 -5.226562 9.9375 -5.625 C 9.238281 -6.195312 7.898438 -6.722656 5.921875 -7.203125 Z M 5.921875 -7.203125 "/></g></g></g><g fill="#000000" fill-opacity="1"><g transform="translate(603.924798, 169.692407)"><g><path d="M 15.125 -7.671875 C 15.125 -9.390625 14.507812 -10.863281 13.28125 -12.09375 C 12.050781 -13.320312 10.570312 -13.9375 8.84375 -13.9375 C 7.125 -13.9375 5.648438 -13.320312 4.421875 -12.09375 C 3.191406 -10.863281 2.578125 -9.390625 2.578125 -7.671875 C 2.578125 -5.941406 3.191406 -4.460938 4.421875 -3.234375 C 5.648438 -2.003906 7.125 -1.390625 8.84375 -1.390625 C 10.570312 -1.390625 12.050781 -2.003906 13.28125 -3.234375 C 14.507812 -4.460938 15.125 -5.941406 15.125 -7.671875 Z M 16.6875 -7.671875 C 16.6875 -6.597656 16.488281 -5.582031 16.09375 -4.625 C 15.664062 -3.664062 15.101562 -2.832031 14.40625 -2.125 C 13.6875 -1.40625 12.847656 -0.847656 11.890625 -0.453125 C 10.929688 -0.0351562 9.914062 0.171875 8.84375 0.171875 C 7.757812 0.171875 6.75 -0.0351562 5.8125 -0.453125 C 4.851562 -0.847656 4.023438 -1.40625 3.328125 -2.125 C 2.609375 -2.832031 2.046875 -3.664062 1.640625 -4.625 C 1.222656 -5.582031 1.015625 -6.597656 1.015625 -7.671875 C 1.015625 -8.753906 1.222656 -9.769531 1.640625 -10.71875 C 2.046875 -11.675781 2.609375 -12.507812 3.328125 -13.21875 C 4.023438 -13.914062 4.851562 -14.476562 5.8125 -14.90625 C 6.75 -15.300781 7.757812 -15.5 8.84375 -15.5 C 9.914062 -15.5 10.929688 -15.300781 11.890625 -14.90625 C 12.847656 -14.476562 13.6875 -13.914062 14.40625 -13.21875 C 15.101562 -12.507812 15.664062 -11.675781 16.09375 -10.71875 C 16.488281 -9.769531 16.6875 -8.753906 16.6875 -7.671875 Z M 16.6875 -7.671875 "/></g></g></g><g fill="#000000" fill-opacity="1"><g transform="translate(628.380704, 169.692407)"><g><path d="M 3.25 -1.578125 L 8.703125 -1.578125 L 8.703125 0 L 1.6875 0 L 1.6875 -15.25 L 3.25 -15.25 Z M 3.25 -1.578125 "/></g></g></g><g fill="#000000" fill-opacity="1"><g transform="translate(644.288281, 169.692407)"><g><path d="M 12.71875 -5.046875 C 12.71875 -3.398438 12.179688 -2.097656 11.109375 -1.140625 C 10.085938 -0.242188 8.734375 0.203125 7.046875 0.203125 C 5.335938 0.203125 3.976562 -0.242188 2.96875 -1.140625 C 1.882812 -2.097656 1.34375 -3.398438 1.34375 -5.046875 L 1.34375 -15.25 L 2.921875 -15.25 L 2.921875 -4.828125 C 2.921875 -3.671875 3.335938 -2.785156 4.171875 -2.171875 C 4.890625 -1.640625 5.847656 -1.375 7.046875 -1.375 C 8.910156 -1.375 10.164062 -2 10.8125 -3.25 C 11.039062 -3.6875 11.15625 -4.210938 11.15625 -4.828125 L 11.15625 -15.25 L 12.71875 -15.25 Z M 12.71875 -5.046875 "/></g></g></g><g fill="#000000" fill-opacity="1"><g transform="translate(665.109453, 169.692407)"><g><path d="M 0.453125 -13.84375 L 0.453125 -15.296875 L 9.421875 -15.296875 L 9.421875 -13.84375 L 5.71875 -13.84375 L 5.71875 -0.046875 L 4.15625 -0.046875 L 4.15625 -13.84375 Z M 0.453125 -13.84375 "/></g></g></g><g fill="#000000" fill-opacity="1"><g transform="translate(681.735002, 169.692407)"><g><path d="M 3.25 0 L 1.6875 0 L 1.6875 -15.25 L 3.25 -15.25 Z M 3.25 0 "/></g></g></g><g fill="#000000" fill-opacity="1"><g transform="translate(693.424476, 169.692407)"><g><path d="M 15.125 -7.671875 C 15.125 -9.390625 14.507812 -10.863281 13.28125 -12.09375 C 12.050781 -13.320312 10.570312 -13.9375 8.84375 -13.9375 C 7.125 -13.9375 5.648438 -13.320312 4.421875 -12.09375 C 3.191406 -10.863281 2.578125 -9.390625 2.578125 -7.671875 C 2.578125 -5.941406 3.191406 -4.460938 4.421875 -3.234375 C 5.648438 -2.003906 7.125 -1.390625 8.84375 -1.390625 C 10.570312 -1.390625 12.050781 -2.003906 13.28125 -3.234375 C 14.507812 -4.460938 15.125 -5.941406 15.125 -7.671875 Z M 16.6875 -7.671875 C 16.6875 -6.597656 16.488281 -5.582031 16.09375 -4.625 C 15.664062 -3.664062 15.101562 -2.832031 14.40625 -2.125 C 13.6875 -1.40625 12.847656 -0.847656 11.890625 -0.453125 C 10.929688 -0.0351562 9.914062 0.171875 8.84375 0.171875 C 7.757812 0.171875 6.75 -0.0351562 5.8125 -0.453125 C 4.851562 -0.847656 4.023438 -1.40625 3.328125 -2.125 C 2.609375 -2.832031 2.046875 -3.664062 1.640625 -4.625 C 1.222656 -5.582031 1.015625 -6.597656 1.015625 -7.671875 C 1.015625 -8.753906 1.222656 -9.769531 1.640625 -10.71875 C 2.046875 -11.675781 2.609375 -12.507812 3.328125 -13.21875 C 4.023438 -13.914062 4.851562 -14.476562 5.8125 -14.90625 C 6.75 -15.300781 7.757812 -15.5 8.84375 -15.5 C 9.914062 -15.5 10.929688 -15.300781 11.890625 -14.90625 C 12.847656 -14.476562 13.6875 -13.914062 14.40625 -13.21875 C 15.101562 -12.507812 15.664062 -11.675781 16.09375 -10.71875 C 16.488281 -9.769531 16.6875 -8.753906 16.6875 -7.671875 Z M 16.6875 -7.671875 "/></g></g></g><g fill="#000000" fill-opacity="1"><g transform="translate(717.880381, 169.692407)"><g><path d="M 3.25 -11.234375 L 3.25 0 L 1.6875 0 L 1.6875 -16.21875 L 10.25 -4.03125 L 10.25 -15.25 L 11.828125 -15.25 L 11.828125 0.9375 Z M 3.25 -11.234375 "/></g></g></g><g fill="#000000" fill-opacity="1"><g transform="translate(738.140635, 169.692407)"><g><path d="M 5.921875 -7.203125 C 2.804688 -7.921875 1.25 -9.253906 1.25 -11.203125 C 1.25 -12.628906 1.753906 -13.703125 2.765625 -14.421875 C 3.765625 -15.128906 4.9375 -15.484375 6.28125 -15.484375 C 9.257812 -15.484375 11.023438 -14.375 11.578125 -12.15625 L 9.875 -12.15625 C 9.570312 -13.476562 8.375 -14.140625 6.28125 -14.140625 C 4.8125 -14.140625 3.785156 -13.703125 3.203125 -12.828125 C 2.984375 -12.503906 2.875 -12.09375 2.875 -11.59375 C 2.875 -10.65625 3.378906 -9.929688 4.390625 -9.421875 C 4.867188 -9.171875 5.890625 -8.84375 7.453125 -8.4375 C 9.003906 -8.03125 10.132812 -7.582031 10.84375 -7.09375 C 11.8125 -6.40625 12.296875 -5.441406 12.296875 -4.203125 C 12.296875 -2.660156 11.691406 -1.492188 10.484375 -0.703125 C 9.460938 -0.0351562 8.203125 0.296875 6.703125 0.296875 C 3.328125 0.296875 1.367188 -0.988281 0.828125 -3.5625 L 2.6875 -3.5625 C 2.976562 -1.945312 4.316406 -1.140625 6.703125 -1.140625 C 8.410156 -1.140625 9.601562 -1.613281 10.28125 -2.5625 C 10.550781 -2.9375 10.6875 -3.441406 10.6875 -4.078125 C 10.6875 -4.710938 10.4375 -5.226562 9.9375 -5.625 C 9.238281 -6.195312 7.898438 -6.722656 5.921875 -7.203125 Z M 5.921875 -7.203125 "/></g></g></g><g fill="#000000" fill-opacity="1"><g transform="translate(467.863505, 126.136673)"><g><path d="M 38.96875 -34.0625 C 42.570312 -34.0625 45.316406 -32.789062 47.203125 -30.25 C 49.003906 -27.757812 49.90625 -24.253906 49.90625 -19.734375 L 49.90625 -13.640625 C 49.90625 -9.671875 49.03125 -6.414062 47.28125 -3.875 C 45.476562 -1.289062 42.660156 0 38.828125 0 L 7.609375 0 C 7.285156 0 6.867188 -0.125 6.359375 -0.375 C 5.859375 -0.632812 5.609375 -1.296875 5.609375 -2.359375 L 5.609375 -7.890625 C 5.609375 -8.953125 5.859375 -9.609375 6.359375 -9.859375 C 6.867188 -10.117188 7.285156 -10.25 7.609375 -10.25 L 37.171875 -10.25 C 37.765625 -10.25 38.1875 -10.351562 38.4375 -10.5625 C 38.695312 -10.769531 38.898438 -10.960938 39.046875 -11.140625 C 39.453125 -11.835938 39.65625 -12.804688 39.65625 -14.046875 L 39.65625 -20 C 39.65625 -21.707031 39.378906 -22.769531 38.828125 -23.1875 C 38.273438 -23.601562 37.742188 -23.8125 37.234375 -23.8125 L 16.46875 -23.8125 C 15.039062 -23.8125 13.578125 -23.992188 12.078125 -24.359375 C 10.578125 -24.734375 9.296875 -25.632812 8.234375 -27.0625 C 6.429688 -29.601562 5.53125 -33.296875 5.53125 -38.140625 L 5.53125 -43.40625 C 5.53125 -47.457031 6.429688 -50.734375 8.234375 -53.234375 C 10.035156 -55.765625 12.828125 -57.03125 16.609375 -57.03125 L 46.453125 -57.03125 C 46.722656 -57.03125 47.113281 -56.90625 47.625 -56.65625 C 48.132812 -56.40625 48.390625 -55.75 48.390625 -54.6875 L 48.390625 -49.140625 C 48.390625 -48.078125 48.132812 -47.421875 47.625 -47.171875 C 47.113281 -46.921875 46.722656 -46.796875 46.453125 -46.796875 L 18.28125 -46.796875 C 17.675781 -46.796875 17.242188 -46.703125 16.984375 -46.515625 C 16.734375 -46.328125 16.539062 -46.117188 16.40625 -45.890625 C 16.03125 -45.148438 15.84375 -44.179688 15.84375 -42.984375 L 15.84375 -37.859375 C 15.84375 -36.148438 16.109375 -35.085938 16.640625 -34.671875 C 17.171875 -34.265625 17.691406 -34.0625 18.203125 -34.0625 Z M 38.96875 -34.0625 "/></g></g></g><g fill="#000000" fill-opacity="1"><g transform="translate(526.772871, 126.136673)"><g><path d="M 56.765625 -57.03125 C 57.359375 -57.03125 57.769531 -56.734375 58 -56.140625 C 58.144531 -55.585938 58.078125 -55.054688 57.796875 -54.546875 L 36.828125 -17.515625 L 36.828125 -2.359375 C 36.828125 -1.296875 36.570312 -0.632812 36.0625 -0.375 C 35.550781 -0.125 35.160156 0 34.890625 0 L 28.515625 0 C 28.242188 0 27.851562 -0.125 27.34375 -0.375 C 26.832031 -0.632812 26.578125 -1.296875 26.578125 -2.359375 L 26.578125 -17.515625 L 5.8125 -54.546875 C 5.539062 -55.054688 5.472656 -55.5625 5.609375 -56.0625 C 5.742188 -56.707031 6.160156 -57.03125 6.859375 -57.03125 L 14.75 -57.03125 C 15.070312 -57.03125 15.414062 -56.945312 15.78125 -56.78125 C 16.144531 -56.625 16.46875 -56.269531 16.75 -55.71875 L 31.84375 -28.03125 L 47.0625 -55.796875 C 47.34375 -56.296875 47.664062 -56.625 48.03125 -56.78125 C 48.40625 -56.945312 48.753906 -57.03125 49.078125 -57.03125 Z M 56.765625 -57.03125 "/></g></g></g><g fill="#000000" fill-opacity="1"><g transform="translate(593.850618, 126.136673)"><g><path d="M 54.546875 -57.03125 C 54.816406 -57.03125 55.207031 -56.90625 55.71875 -56.65625 C 56.226562 -56.40625 56.484375 -55.722656 56.484375 -54.609375 L 56.484375 -8.859375 C 56.484375 -5.492188 56 -3.1875 55.03125 -1.9375 C 54.0625 -0.601562 52.5625 0.0625 50.53125 0.0625 L 45.484375 0.0625 C 44.554688 0.0625 43.769531 -0.00390625 43.125 -0.140625 C 42.800781 -0.234375 42.476562 -0.335938 42.15625 -0.453125 C 41.832031 -0.566406 41.53125 -0.71875 41.25 -0.90625 C 40.695312 -1.226562 40.191406 -1.734375 39.734375 -2.421875 C 39.503906 -2.742188 39.25 -3.113281 38.96875 -3.53125 C 38.695312 -3.945312 38.421875 -4.429688 38.140625 -4.984375 L 16.203125 -43.890625 C 16.148438 -43.972656 16.097656 -44.023438 16.046875 -44.046875 C 16.003906 -44.078125 15.984375 -44.09375 15.984375 -44.09375 L 15.640625 -44.09375 C 15.640625 -44.09375 15.640625 -44.078125 15.640625 -44.046875 C 15.640625 -44.023438 15.640625 -43.992188 15.640625 -43.953125 L 15.640625 -2.359375 C 15.640625 -1.296875 15.394531 -0.625 14.90625 -0.34375 C 14.425781 -0.0703125 14.023438 0.0625 13.703125 0.0625 L 7.546875 0.0625 C 7.222656 0.0625 6.804688 -0.0703125 6.296875 -0.34375 C 5.785156 -0.625 5.53125 -1.296875 5.53125 -2.359375 L 5.53125 -48.109375 C 5.53125 -51.472656 6.015625 -53.800781 6.984375 -55.09375 C 8.003906 -56.382812 9.503906 -57.03125 11.484375 -57.03125 L 16.6875 -57.03125 C 17.144531 -57.03125 17.582031 -57.019531 18 -57 C 18.414062 -56.976562 18.785156 -56.941406 19.109375 -56.890625 C 19.847656 -56.753906 20.492188 -56.476562 21.046875 -56.0625 C 21.503906 -55.738281 21.988281 -55.207031 22.5 -54.46875 C 22.726562 -54.144531 22.96875 -53.773438 23.21875 -53.359375 C 23.476562 -52.953125 23.742188 -52.492188 24.015625 -51.984375 L 45.890625 -13.078125 C 45.941406 -12.941406 46.007812 -12.875 46.09375 -12.875 L 46.453125 -12.875 C 46.453125 -12.914062 46.453125 -12.9375 46.453125 -12.9375 C 46.453125 -12.9375 46.453125 -12.960938 46.453125 -13.015625 L 46.453125 -54.609375 C 46.453125 -55.722656 46.691406 -56.40625 47.171875 -56.65625 C 47.660156 -56.90625 48.066406 -57.03125 48.390625 -57.03125 Z M 54.546875 -57.03125 "/></g></g></g><g fill="#000000" fill-opacity="1"><g transform="translate(659.336239, 126.136673)"><g><path d="M 47.140625 -12.390625 C 47.460938 -12.390625 47.875 -12.257812 48.375 -12 C 48.882812 -11.75 49.140625 -11.09375 49.140625 -10.03125 L 49.140625 -2.421875 C 49.140625 -1.359375 48.882812 -0.695312 48.375 -0.4375 C 47.875 -0.1875 47.460938 -0.0625 47.140625 -0.0625 L 22.5625 -0.0625 C 21.039062 -0.0625 19.632812 -0.15625 18.34375 -0.34375 C 17.050781 -0.53125 15.875 -0.832031 14.8125 -1.25 C 12.550781 -2.03125 10.75 -3.296875 9.40625 -5.046875 C 8.03125 -6.847656 7.039062 -9.113281 6.4375 -11.84375 C 6.207031 -12.988281 6.007812 -14.253906 5.84375 -15.640625 C 5.6875 -17.023438 5.582031 -18.523438 5.53125 -20.140625 L 5.53125 -20.484375 L 5.671875 -29.203125 C 5.816406 -29.710938 6.070312 -30.289062 6.4375 -30.9375 C 7.445312 -32.738281 9.015625 -33.707031 11.140625 -33.84375 L 46.859375 -33.921875 C 47.140625 -33.921875 47.53125 -33.789062 48.03125 -33.53125 C 48.539062 -33.28125 48.796875 -32.625 48.796875 -31.5625 L 48.796875 -26.09375 C 48.796875 -25.03125 48.539062 -24.359375 48.03125 -24.078125 C 47.53125 -23.804688 47.140625 -23.671875 46.859375 -23.671875 L 15.921875 -23.671875 C 15.921875 -23.671875 15.90625 -23.414062 15.875 -22.90625 C 15.851562 -22.40625 15.832031 -21.832031 15.8125 -21.1875 C 15.789062 -20.539062 15.78125 -19.960938 15.78125 -19.453125 C 15.78125 -18.941406 15.78125 -18.6875 15.78125 -18.6875 C 15.820312 -18.5 15.84375 -18.300781 15.84375 -18.09375 C 15.84375 -17.894531 15.867188 -17.703125 15.921875 -17.515625 C 16.109375 -16.222656 16.5 -15.179688 17.09375 -14.390625 C 17.644531 -13.703125 18.335938 -13.195312 19.171875 -12.875 C 19.679688 -12.738281 20.222656 -12.625 20.796875 -12.53125 C 21.378906 -12.4375 22.035156 -12.390625 22.765625 -12.390625 Z M 11.625 -33.296875 Z M 47.203125 -57.171875 C 47.484375 -57.171875 47.875 -57.03125 48.375 -56.75 C 48.882812 -56.476562 49.140625 -55.8125 49.140625 -54.75 L 49.140625 -49.28125 C 49.140625 -48.21875 48.882812 -47.546875 48.375 -47.265625 C 47.875 -46.992188 47.484375 -46.859375 47.203125 -46.859375 L 7.40625 -46.9375 C 7.125 -46.9375 6.738281 -47.0625 6.25 -47.3125 C 5.769531 -47.5625 5.53125 -48.21875 5.53125 -49.28125 L 5.53125 -54.6875 C 5.53125 -55.789062 5.769531 -56.476562 6.25 -56.75 C 6.738281 -57.03125 7.125 -57.171875 7.40625 -57.171875 Z M 47.203125 -57.171875 "/></g></g></g><g fill="#000000" fill-opacity="1"><g transform="translate(717.484135, 126.136673)"><g><path d="M 38.203125 -29.5625 L 56.765625 -3.046875 C 57.171875 -2.492188 57.304688 -1.914062 57.171875 -1.3125 C 57.078125 -0.4375 56.570312 0 55.65625 0 L 47.625 0 C 47.019531 0 46.535156 -0.09375 46.171875 -0.28125 C 45.984375 -0.414062 45.804688 -0.570312 45.640625 -0.75 C 45.484375 -0.9375 45.335938 -1.171875 45.203125 -1.453125 L 31.21875 -21.25 L 17.171875 -1.390625 C 16.890625 -0.921875 16.566406 -0.570312 16.203125 -0.34375 C 15.921875 -0.113281 15.4375 0 14.75 0 L 7.125 0 C 6.25 0 5.742188 -0.4375 5.609375 -1.3125 C 5.515625 -2.007812 5.675781 -2.585938 6.09375 -3.046875 L 25.125 -29.96875 L 7.953125 -53.984375 C 7.585938 -54.492188 7.453125 -55.070312 7.546875 -55.71875 C 7.640625 -56.59375 8.144531 -57.03125 9.0625 -57.03125 L 17.09375 -57.03125 C 17.695312 -57.03125 18.179688 -56.914062 18.546875 -56.6875 C 18.960938 -56.363281 19.285156 -56.019531 19.515625 -55.65625 L 31.765625 -37.9375 L 44.78125 -55.65625 C 45.007812 -56.019531 45.332031 -56.363281 45.75 -56.6875 C 46.125 -56.914062 46.609375 -57.03125 47.203125 -57.03125 L 54.828125 -57.03125 C 55.742188 -57.03125 56.269531 -56.59375 56.40625 -55.71875 C 56.5 -55.03125 56.335938 -54.453125 55.921875 -53.984375 Z M 38.203125 -29.5625 "/></g></g></g><g fill="#000000" fill-opacity="1"><g transform="translate(783.731225, 126.136673)"><g><path d="M 13.84375 -57.03125 C 14.125 -57.03125 14.515625 -56.890625 15.015625 -56.609375 C 15.523438 -56.335938 15.78125 -55.671875 15.78125 -54.609375 L 15.78125 -2.359375 C 15.78125 -1.296875 15.523438 -0.625 15.015625 -0.34375 C 14.515625 -0.0703125 14.125 0.0625 13.84375 0.0625 L 7.46875 0.0625 C 7.195312 0.0625 6.804688 -0.0703125 6.296875 -0.34375 C 5.785156 -0.625 5.53125 -1.296875 5.53125 -2.359375 L 5.53125 -54.609375 C 5.53125 -55.671875 5.785156 -56.335938 6.296875 -56.609375 C 6.804688 -56.890625 7.195312 -57.03125 7.46875 -57.03125 Z M 13.84375 -57.03125 "/></g></g></g><g fill="#000000" fill-opacity="1"><g transform="translate(808.51331, 126.136673)"><g><path d="M 38.96875 -34.0625 C 42.570312 -34.0625 45.316406 -32.789062 47.203125 -30.25 C 49.003906 -27.757812 49.90625 -24.253906 49.90625 -19.734375 L 49.90625 -13.640625 C 49.90625 -9.671875 49.03125 -6.414062 47.28125 -3.875 C 45.476562 -1.289062 42.660156 0 38.828125 0 L 7.609375 0 C 7.285156 0 6.867188 -0.125 6.359375 -0.375 C 5.859375 -0.632812 5.609375 -1.296875 5.609375 -2.359375 L 5.609375 -7.890625 C 5.609375 -8.953125 5.859375 -9.609375 6.359375 -9.859375 C 6.867188 -10.117188 7.285156 -10.25 7.609375 -10.25 L 37.171875 -10.25 C 37.765625 -10.25 38.1875 -10.351562 38.4375 -10.5625 C 38.695312 -10.769531 38.898438 -10.960938 39.046875 -11.140625 C 39.453125 -11.835938 39.65625 -12.804688 39.65625 -14.046875 L 39.65625 -20 C 39.65625 -21.707031 39.378906 -22.769531 38.828125 -23.1875 C 38.273438 -23.601562 37.742188 -23.8125 37.234375 -23.8125 L 16.46875 -23.8125 C 15.039062 -23.8125 13.578125 -23.992188 12.078125 -24.359375 C 10.578125 -24.734375 9.296875 -25.632812 8.234375 -27.0625 C 6.429688 -29.601562 5.53125 -33.296875 5.53125 -38.140625 L 5.53125 -43.40625 C 5.53125 -47.457031 6.429688 -50.734375 8.234375 -53.234375 C 10.035156 -55.765625 12.828125 -57.03125 16.609375 -57.03125 L 46.453125 -57.03125 C 46.722656 -57.03125 47.113281 -56.90625 47.625 -56.65625 C 48.132812 -56.40625 48.390625 -55.75 48.390625 -54.6875 L 48.390625 -49.140625 C 48.390625 -48.078125 48.132812 -47.421875 47.625 -47.171875 C 47.113281 -46.921875 46.722656 -46.796875 46.453125 -46.796875 L 18.28125 -46.796875 C 17.675781 -46.796875 17.242188 -46.703125 16.984375 -46.515625 C 16.734375 -46.328125 16.539062 -46.117188 16.40625 -45.890625 C 16.03125 -45.148438 15.84375 -44.179688 15.84375 -42.984375 L 15.84375 -37.859375 C 15.84375 -36.148438 16.109375 -35.085938 16.640625 -34.671875 C 17.171875 -34.265625 17.691406 -34.0625 18.203125 -34.0625 Z M 38.96875 -34.0625 "/></g></g></g></svg>